<svg xmlns="http://www.w3.org/2000/svg" width="800" height="560" style="background-color: #0d1117; font-family: 'Courier New', Courier, monospace; font-size: 15px; font-weight: bold; border-radius: 8px;">
  <!-- Window Controls -->
  <rect width="100%" height="35" fill="#161b22" rx="8" />
  <circle cx="20" cy="18" r="6" fill="#ff5f56" />
  <circle cx="40" cy="18" r="6" fill="#ffbd2e" />
  <circle cx="60" cy="18" r="6" fill="#27c93f" />

  
  <!-- Prompt 1 -->
  <!-- Blue background for path -->
  <rect x="20" y="55" width="310" height="24" fill="#1f6feb" rx="3" />
  <text x="30" y="72" fill="#ffffff">🍎 📂 .../maharashtra-pride</text>
  
  <!-- Green background for branch -->
  <rect x="330" y="55" width="210" height="24" fill="#238636" rx="3" />
  <text x="340" y="72" fill="#ffffff">🐙 ⎇ main ✔ v1.0.0</text>

  <!-- Command -->
  <text x="20" y="105" fill="#58a6ff">↳</text>
  <text x="40" y="105" fill="#e3b341">colorls -1</text>

  <!-- Tree -->
  <text x="20" y="145" fill="#3fb950">📂 backend/</text>
  <text x="45" y="170" fill="#3fb950">🐍 api.py</text>
  <text x="45" y="195" fill="#3fb950">🐍 database.py</text>
  <text x="45" y="220" fill="#3fb950">🐍 llm_extractor.py</text>
  <text x="45" y="245" fill="#3fb950">🐍 main.py</text>
  <text x="45" y="270" fill="#58a6ff">📜 requirements.txt</text>

  <text x="20" y="310" fill="#3fb950">📂 src/</text>
  <text x="45" y="335" fill="#3fb950">📂 components/</text>
  <text x="45" y="360" fill="#3fb950">📂 routes/</text>
  <text x="45" y="385" fill="#3fb950">📂 hooks/</text>
  <text x="45" y="410" fill="#58a6ff">🎨 styles.css</text>
  <text x="45" y="435" fill="#58a6ff">⚙️ config.ts</text>

  <text x="20" y="475" fill="#58a6ff">🐳 docker-compose.yml</text>
  <text x="20" y="500" fill="#58a6ff">📦 package.json</text>
  <text x="20" y="525" fill="#58a6ff">📜 render.yaml</text>

</svg>